<?xml version="1.0" encoding="UTF-8" standalone="no"?>
<svg
   width="2025.7386"
   zoomAndPan="magnify"
   viewBox="0 0 1519.304 401.21483"
   height="534.95312"
   preserveAspectRatio="xMidYMid"
   version="1.0"
   id="svg45"
   xmlns="http://www.w3.org/2000/svg"
   xmlns:svg="http://www.w3.org/2000/svg">
  <defs
     id="defs1">
    <clipPath
       id="72970ef24f">
      <path
         d="M 192,759.27734 H 557.90234 V 1045 H 192 Z m 0,0"
         clip-rule="nonzero"
         id="path1" />
    </clipPath>
  </defs>
  <g
     clip-path="url(#72970ef24f)"
     id="g2"
     transform="translate(-192,-759.39064)">
    <path
       fill="#ffffff"
       d="M 226.24609,768.80469 C 215.5,774.97266 207,783.55469 201.08203,793.72266 195.16797,803.96875 192,815.63672 192,828.05078 v 118.65625 c 0,12.33203 3.16797,24 9.08203,34.25 C 207,991.12109 215.5,999.70312 226.24609,1005.9531 l 62.41407,36.0821 c 9.33203,5.414 21.16406,2.25 26.57812,-7.086 5.41797,-9.332 2.25,-21.164 -7.08203,-26.5781 l -62.41016,-36.08204 h -0.082 c -4.75,-2.75 -8.5,-6.41406 -10.91797,-10.66406 -2.41797,-4.25 -3.75,-9.33594 -3.75,-14.91797 V 828.05078 c 0,-5.58203 1.33203,-10.66406 3.75,-14.83203 v -0.082 c 2.41797,-4.25 6.16797,-7.91797 11,-10.66797 4.75,-2.75 9.75,-4.08203 14.75,-4.08203 4.9961,0 10.08203,1.33203 14.7461,4.08203 l 114.24218,65.99609 h 0.082 L 503.89062,934.375 c 4.75,2.75 8.41797,6.41797 10.91797,10.75 2.41407,4.25 3.7461,9.25 3.7461,14.91406 0,5.25 -1.16407,10.08203 -3.2461,14.08203 -0.16797,0.25 -0.33593,0.5 -0.41797,0.75 -2.5,4.33594 -6.25,8.08594 -10.91796,10.75 -9.33204,5.33203 -12.4961,17.25001 -7.16407,26.50001 5.33203,9.332 17.25,12.4961 26.4961,7.1641 10.83203,-6.25 19.41797,-14.8321 25.25,-24.91411 0.25,-0.41797 0.5,-0.83203 0.66406,-1.33203 5.5,-9.91797 8.41797,-21.16797 8.41797,-33.08203 0,-12.33203 -3.16797,-24 -9.08203,-34.24609 v -0.0859 c -5.83203,-10.08203 -14.41797,-18.66406 -25.25,-24.91406 L 409.14844,834.80078 294.74219,768.80469 c -10.83203,-6.25 -22.5,-9.41407 -34.2461,-9.41407 -11.66797,0 -23.33203,3.16407 -34.25,9.41407 z m 0,0"
       fill-opacity="1"
       fill-rule="evenodd"
       id="path2" />
  </g>
  <path
     fill="#3db4f2"
     d="m 3.9500001e-6,303.64066 v 28.914 c 0,12.332 3.1679700499999,24 9.0820300499999,34.2461 5.91797,10.25 14.41797,18.832 25.16406,25 0.41797,0.25 0.83594,0.5 1.25,0.668 10.5,5.832 21.75,8.7461 33,8.7461 11.66407,0 23.32813,-3.1641 34.164066,-9.4141 l 128.15234,-73.9101 c 10.83594,-6.25 19.41797,-14.8321 25.25,-24.9141 v -0.086 c 5.91406,-10.2461 9.08203,-21.9141 9.08203,-34.2461 0,-12.3321 -3.16797,-23.99614 -9.08203,-34.24614 -5.91797,-10.16797 -14.41406,-18.75 -25.25,-25 L 117.90625,134.23827 c -3.08203,-1.75 -6.33203,-2.58204 -9.66406,-2.58204 -6.75,0 -13.249996,3.5 -16.832026,9.75 -5.33204,9.33204 -2.16797,21.16407 7.16406,26.4961 l 112.910146,65.16015 c 4.7461,2.75 8.4961,6.41797 10.91407,10.66798 2.41797,4.25 3.75,9.332 3.75,14.9141 0,5.582 -1.33203,10.6679 -3.75,14.832 -2.5,4.332 -6.25,8.082 -10.91407,10.75 l -128.156246,73.9101 c -4.75,2.75 -9.75,4.0821 -14.83203,4.0821 -4.75,0 -9.5,-1.1641 -14,-3.5821 -0.25,-0.1679 -0.5,-0.332 -0.75,-0.5 -4.83203,-2.832 -8.58203,-6.5 -11,-10.664 -2.41797,-4.25 -3.75,-9.336 -3.75,-14.918 v -28.914 c 0,-10.75 -8.75,-19.4961 -19.49609,-19.4961 -10.75,0 -19.5000000499999,8.664 -19.5000000499999,19.4961 z m 0,0"
     fill-opacity="1"
     fill-rule="evenodd"
     id="path3" />
  <g
     fill="#ffffff"
     fill-opacity="1"
     id="g6"
     transform="translate(-192,-759.39064)">
    <g
       transform="translate(572.59914,1032.4106)"
       id="g5">
      <g
         id="g4">
        <path
           d="M 69.921875,3.09375 C 57.378906,3.09375 45.207031,1.546875 33.40625,-1.546875 21.613281,-4.648438 12.023438,-8.78125 4.640625,-13.9375 L 19.03125,-46.25 c 6.9375,4.574219 14.976562,8.261719 24.125,11.0625 9.144531,2.804688 18.140625,4.203125 26.984375,4.203125 16.820313,0 25.234375,-4.203125 25.234375,-12.609375 0,-4.425781 -2.402344,-7.707031 -7.203125,-9.84375 -4.792969,-2.132812 -12.496094,-4.382812 -23.109375,-6.75 -11.65625,-2.507812 -21.398438,-5.203125 -29.21875,-8.078125 -7.8125,-2.875 -14.527344,-7.484375 -20.140625,-13.828125 -5.605469,-6.34375 -8.40625,-14.898438 -8.40625,-25.67188 0,-9.4375 2.582031,-17.95312 7.75,-25.54687 5.164063,-7.60156 12.875,-13.61719 23.125,-18.04687 C 48.421875,-155.78516 61,-158 75.90625,-158 c 10.175781,0 20.203125,1.14844 30.07813,3.4375 9.88281,2.28125 18.59375,5.63672 26.12499,10.0625 l -13.49999,32.53125 c -14.75,-7.96875 -29.062505,-11.95313 -42.937505,-11.95313 -8.699219,0 -15.042969,1.29297 -19.03125,3.875 -3.980469,2.58594 -5.96875,5.9375 -5.96875,10.0625 0,4.13672 2.359375,7.24219 7.078125,9.3125 4.71875,2.062505 12.316406,4.199224 22.796875,6.406255 11.800781,2.511719 21.570315,5.203125 29.312505,8.078125 7.75,2.875 14.46093,7.449219 20.14062,13.71875 5.67578,6.273438 8.51562,14.792969 8.51562,25.5625 0,9.292969 -2.58593,17.699219 -7.75,25.21875 -5.15624,7.523438 -12.90234,13.53125 -23.23437,18.03125 -10.324219,4.5 -22.859375,6.75 -37.609375,6.75 z m 0,0"
           id="path4" />
      </g>
    </g>
  </g>
  <g
     fill="#ffffff"
     fill-opacity="1"
     id="g9"
     transform="translate(-192,-759.39064)">
    <g
       transform="translate(715.76676,1032.4106)"
       id="g8">
      <g
         id="g7">
        <path
           d="M 98.46875,-55.546875 V 0 H 54.65625 V -56.203125 L -4.421875,-154.89062 h 46.25 L 78.5625,-93.375 l 36.71875,-61.51562 h 42.5 z m 0,0"
           id="path6" />
      </g>
    </g>
  </g>
  <g
     fill="#ffffff"
     fill-opacity="1"
     id="g12"
     transform="translate(-192,-759.39064)">
    <g
       transform="translate(869.11324,1032.4106)"
       id="g11">
      <g
         id="g10">
        <path
           d="M 162.85937,-154.89062 V 0 H 126.79688 L 58.421875,-82.53125 V 0 h -42.9375 V -154.89062 H 51.5625 l 68.375,82.531245 v -82.531245 z m 0,0"
           id="path9" />
      </g>
    </g>
  </g>
  <g
     fill="#ffffff"
     fill-opacity="1"
     id="g15"
     transform="translate(-192,-759.39064)">
    <g
       transform="translate(1047.4642,1032.4106)"
       id="g14">
      <g
         id="g13">
        <path
           d="m 75.234375,-56.203125 -16.375,17.484375 V 0 h -43.375 v -154.89062 h 43.375 V -90.5 l 59.968755,-64.39062 H 167.0625 L 103.78125,-86.296875 170.39062,0 h -50.90624 z m 0,0"
           id="path12" />
      </g>
    </g>
  </g>
  <g
     fill="#ffffff"
     fill-opacity="1"
     id="g18"
     transform="translate(-192,-759.39064)">
    <g
       transform="translate(1213.8662,1032.4106)"
       id="g17">
      <g
         id="g16">
        <path
           d="m 86.96875,3.09375 c -23.023438,0 -40.914062,-6.265625 -53.671875,-18.796875 C 20.535156,-28.242188 14.15625,-46.023438 14.15625,-69.046875 v -85.843745 h 43.8125 V -70.375 c 0,24.792969 9.8125,37.1875 29.4375,37.1875 19.46875,0 29.20313,-12.394531 29.20313,-37.1875 v -84.51562 h 43.15624 v 85.843745 c 0,23.023437 -6.38281,40.804687 -19.14062,53.34375 C 127.86328,-3.171875 109.97656,3.09375 86.96875,3.09375 Z m 0,0"
           id="path15" />
      </g>
    </g>
  </g>
  <g
     fill="#ffffff"
     fill-opacity="1"
     id="g21"
     transform="translate(-192,-759.39064)">
    <g
       transform="translate(1387.7916,1032.4106)"
       id="g20">
      <g
         id="g19">
        <path
           d="M 83.203125,-41.15625 H 59.296875 V 0 h -43.8125 v -154.89062 h 70.8125 c 14.019535,0 26.191405,2.32421 36.515625,6.96875 10.32031,4.64843 18.28516,11.28906 23.89062,19.92187 5.61329,8.625 8.42188,18.76562 8.42188,30.421875 0,11.210937 -2.62109,20.980469 -7.85938,29.3125 -5.24218,8.335937 -12.73046,14.859375 -22.46874,19.578125 L 158.21875,0 h -46.92187 z m 27.656255,-56.421875 c 0,-7.226565 -2.28907,-12.832035 -6.85938,-16.812505 -4.574219,-3.98828 -11.359375,-5.98437 -20.359375,-5.98437 h -24.34375 v 45.359375 h 24.34375 c 9,0 15.785156,-1.953125 20.359375,-5.859375 4.57031,-3.914062 6.85938,-9.484375 6.85938,-16.703125 z m 0,0"
           id="path18" />
      </g>
    </g>
  </g>
  <g
     fill="#ffffff"
     fill-opacity="1"
     id="g24"
     transform="translate(-192,-759.39064)">
    <g
       transform="translate(1551.5381,1032.4106)"
       id="g23">
      <g
         id="g22">
        <path
           d="m 86.96875,3.09375 c -23.023438,0 -40.914062,-6.265625 -53.671875,-18.796875 C 20.535156,-28.242188 14.15625,-46.023438 14.15625,-69.046875 v -85.843745 h 43.8125 V -70.375 c 0,24.792969 9.8125,37.1875 29.4375,37.1875 19.46875,0 29.20313,-12.394531 29.20313,-37.1875 v -84.51562 h 43.15624 v 85.843745 c 0,23.023437 -6.38281,40.804687 -19.14062,53.34375 C 127.86328,-3.171875 109.97656,3.09375 86.96875,3.09375 Z m 0,0"
           id="path21" />
      </g>
    </g>
  </g>
  <g
     fill="#3db4f2"
     fill-opacity="1"
     id="g27"
     transform="translate(-192,-759.39064)">
    <g
       transform="translate(586.79178,1128.0481)"
       id="g26">
      <g
         id="g25">
        <path
           d="m 26.796875,0.890625 c -4.167969,0 -7.917969,-0.523437 -11.25,-1.5625 -3.335937,-1.039063 -6.523437,-2.867187 -9.5625,-5.484375 -0.773437,-0.65625 -1.367187,-1.398438 -1.78125,-2.234375 -0.417969,-0.832031 -0.625,-1.664063 -0.625,-2.5 0,-1.375 0.488281,-2.582031 1.46875,-3.625 0.976563,-1.039063 2.210937,-1.5625 3.703125,-1.5625 1.132812,0 2.148438,0.359375 3.046875,1.078125 2.257813,1.84375 4.503906,3.246094 6.734375,4.203125 2.238281,0.949219 4.992188,1.421875 8.265625,1.421875 2.207031,0 4.234375,-0.34375 6.078125,-1.03125 1.84375,-0.6875 3.328125,-1.609375 4.453125,-2.765625 1.132813,-1.164063 1.703125,-2.492187 1.703125,-3.984375 0,-1.78125 -0.539062,-3.296875 -1.609375,-4.546875 -1.0625,-1.25 -2.699219,-2.304687 -4.90625,-3.171875 -2.210937,-0.863281 -5.007813,-1.535156 -8.390625,-2.015625 -3.21875,-0.476563 -6.054688,-1.207031 -8.5,-2.1875 -2.4375,-0.976563 -4.476562,-2.226563 -6.109375,-3.75 -1.636719,-1.519531 -2.871094,-3.304687 -3.703125,-5.359375 -0.835938,-2.050781 -1.25,-4.359375 -1.25,-6.921875 0,-3.875 0.992188,-7.179687 2.984375,-9.921875 2,-2.738281 4.691406,-4.820312 8.078125,-6.25 3.394531,-1.425781 7.148438,-2.140625 11.265625,-2.140625 3.863281,0 7.445313,0.585937 10.75,1.75 3.3125,1.15625 6.007813,2.625 8.09375,4.40625 1.726563,1.375 2.59375,2.953125 2.59375,4.734375 0,1.3125 -0.507813,2.507812 -1.515625,3.578125 -1.011719,1.074219 -2.203125,1.609375 -3.578125,1.609375 -0.898437,0 -1.699219,-0.265625 -2.40625,-0.796875 -0.960937,-0.832031 -2.246094,-1.617187 -3.859375,-2.359375 -1.605469,-0.75 -3.304688,-1.378906 -5.09375,-1.890625 -1.78125,-0.507813 -3.445312,-0.765625 -4.984375,-0.765625 -2.5625,0 -4.726563,0.328125 -6.484375,0.984375 -1.75,0.65625 -3.074219,1.554687 -3.96875,2.6875 -0.898438,1.125 -1.34375,2.433594 -1.34375,3.921875 0,1.792969 0.519531,3.273438 1.5625,4.4375 1.039062,1.15625 2.546875,2.078125 4.515625,2.765625 1.96875,0.679687 4.320313,1.289063 7.0625,1.828125 3.570313,0.65625 6.710937,1.433594 9.421875,2.328125 2.707031,0.886719 4.953125,2.03125 6.734375,3.4375 1.789063,1.398437 3.128906,3.152344 4.015625,5.265625 0.894531,2.117188 1.34375,4.6875 1.34375,7.71875 0,3.875 -1.074219,7.214844 -3.21875,10.015625 -2.136719,2.792969 -4.949219,4.933594 -8.4375,6.421875 -3.480469,1.488281 -7.246094,2.234375 -11.296875,2.234375 z m 0,0"
           id="path24" />
      </g>
    </g>
  </g>
  <g
     fill="#3db4f2"
     fill-opacity="1"
     id="g30"
     transform="translate(-192,-759.39064)">
    <g
       transform="translate(646.80566,1128.0481)"
       id="g29">
      <g
         id="g28">
        <path
           d="M 27.875,0 C 26.207031,0 24.835938,-0.519531 23.765625,-1.5625 22.691406,-2.601562 22.15625,-3.898438 22.15625,-5.453125 v -51.8125 h 11.609375 v 51.8125 c 0,1.554687 -0.554687,2.851563 -1.65625,3.890625 C 31.003906,-0.519531 29.59375,0 27.875,0 Z M 8.125,-52.25 c -1.542969,0 -2.835938,-0.472656 -3.875,-1.421875 -1.042969,-0.957031 -1.5625,-2.210937 -1.5625,-3.765625 0,-1.550781 0.519531,-2.785156 1.5625,-3.703125 1.039062,-0.925781 2.332031,-1.390625 3.875,-1.390625 h 39.671875 c 1.539063,0 2.832031,0.480469 3.875,1.4375 1.039063,0.949219 1.5625,2.199219 1.5625,3.75 0,1.542969 -0.523437,2.777344 -1.5625,3.703125 -1.042969,0.929687 -2.335937,1.390625 -3.875,1.390625 z m 0,0"
           id="path27" />
      </g>
    </g>
  </g>
  <g
     fill="#3db4f2"
     fill-opacity="1"
     id="g33"
     transform="translate(-192,-759.39064)">
    <g
       transform="translate(709.40916,1128.0481)"
       id="g32">
      <g
         id="g31">
        <path
           d="M 13.125,0 C 11.457031,0 9.96875,-0.519531 8.65625,-1.5625 7.351562,-2.601562 6.703125,-3.898438 6.703125,-5.453125 v -51.625 c 0,-1.550781 0.519531,-2.847656 1.5625,-3.890625 1.039063,-1.039062 2.335937,-1.5625 3.890625,-1.5625 H 37.875 c 3.09375,0 5.992188,0.824219 8.703125,2.46875 2.71875,1.636719 4.910156,3.898438 6.578125,6.78125 1.664062,2.886719 2.5,6.203125 2.5,9.953125 0,2.273437 -0.464844,4.480469 -1.390625,6.625 -0.929687,2.136719 -2.183594,4.070313 -3.765625,5.796875 -1.574219,1.730469 -3.339844,3.070312 -5.296875,4.015625 l 0.09375,-2.046875 c 1.664063,0.886719 3.046875,1.945312 4.140625,3.171875 1.101562,1.21875 1.96875,2.53125 2.59375,3.9375 0.625,1.398437 1,2.898437 1.125,4.5 0.226562,1.492187 0.390625,2.804687 0.484375,3.9375 0.09375,1.125 0.269531,2.078125 0.53125,2.859375 0.269531,0.773438 0.789063,1.367188 1.5625,1.78125 1.3125,0.773438 2.128906,1.886719 2.453125,3.34375 0.332031,1.460938 -0.0078,2.757812 -1.015625,3.890625 -0.65625,0.773437 -1.492187,1.261719 -2.5,1.46875 -1.011719,0.207031 -2.027344,0.207031 -3.046875,0 -1.011719,-0.207031 -1.84375,-0.488281 -2.5,-0.84375 -1.011719,-0.59375 -2.023438,-1.46875 -3.03125,-2.625 C 45.082031,-4.679688 44.265625,-6.25 43.640625,-8.21875 c -0.625,-1.96875 -0.9375,-4.5 -0.9375,-7.59375 0,-1.007812 -0.183594,-1.945312 -0.546875,-2.8125 -0.355469,-0.863281 -0.859375,-1.609375 -1.515625,-2.234375 -0.65625,-0.625 -1.492187,-1.097656 -2.5,-1.421875 -1.011719,-0.332031 -2.203125,-0.5 -3.578125,-0.5 H 16.53125 l 1.328125,-2.046875 v 19.375 c 0,1.554687 -0.417969,2.851563 -1.25,3.890625 C 15.773438,-0.519531 14.613281,0 13.125,0 Z m 3.484375,-31.984375 h 20.8125 c 1.070313,0 2.113281,-0.488281 3.125,-1.46875 1.019531,-0.976563 1.851563,-2.316406 2.5,-4.015625 0.65625,-1.695312 0.984375,-3.5625 0.984375,-5.59375 0,-2.613281 -0.699219,-4.796875 -2.09375,-6.546875 C 40.539062,-51.367188 39.035156,-52.25 37.421875,-52.25 h -20.625 l 1.0625,-2.859375 v 25.28125 z m 0,0"
           id="path30" />
      </g>
    </g>
  </g>
  <g
     fill="#3db4f2"
     fill-opacity="1"
     id="g36"
     transform="translate(-192,-759.39064)">
    <g
       transform="translate(777.4598,1128.0481)"
       id="g35">
      <g
         id="g34">
        <path
           d="m 12.15625,-62.53125 h 29.921875 c 1.539063,0 2.832031,0.496094 3.875,1.484375 1.039063,0.980469 1.5625,2.242187 1.5625,3.78125 0,1.492187 -0.523437,2.699219 -1.5625,3.625 -1.042969,0.929687 -2.335937,1.390625 -3.875,1.390625 H 17.0625 l 0.796875,-1.53125 v 17.421875 l -0.703125,-0.71875 h 20.890625 c 1.550781,0 2.847656,0.496094 3.890625,1.484375 1.039062,0.980469 1.5625,2.246094 1.5625,3.796875 0,1.492187 -0.523438,2.699219 -1.5625,3.625 -1.042969,0.917969 -2.339844,1.375 -3.890625,1.375 h -20.625 l 0.4375,-0.71875 V -9.46875 l -0.703125,-0.796875 h 24.921875 c 1.539063,0 2.832031,0.523437 3.875,1.5625 1.039063,1.042969 1.5625,2.246094 1.5625,3.609375 0,1.492188 -0.523437,2.714844 -1.5625,3.671875 C 44.910156,-0.472656 43.617188,0 42.078125,0 H 12.15625 C 10.601562,0 9.304688,-0.519531 8.265625,-1.5625 7.222656,-2.601562 6.703125,-3.898438 6.703125,-5.453125 v -51.625 c 0,-1.550781 0.519531,-2.847656 1.5625,-3.890625 1.039063,-1.039062 2.335937,-1.5625 3.890625,-1.5625 z m 0,0"
           id="path33" />
      </g>
    </g>
  </g>
  <g
     fill="#3db4f2"
     fill-opacity="1"
     id="g39"
     transform="translate(-192,-759.39064)">
    <g
       transform="translate(835.24132,1128.0481)"
       id="g38">
      <g
         id="g37">
        <path
           d="m 12.328125,-62.625 c 0.832031,0 1.707031,0.226562 2.625,0.671875 0.925781,0.449219 1.628906,1.03125 2.109375,1.75 l 21.703125,33.40625 -4.46875,-0.1875 22.25,-33.21875 c 1.125,-1.613281 2.582031,-2.421875 4.375,-2.421875 1.425781,0 2.703125,0.511719 3.828125,1.53125 1.132812,1.011719 1.703125,2.320312 1.703125,3.921875 v 51.71875 c 0,1.554687 -0.507813,2.851563 -1.515625,3.890625 C 63.925781,-0.519531 62.585938,0 60.921875,0 c -1.667969,0 -3.023437,-0.519531 -4.0625,-1.5625 -1.042969,-1.039062 -1.5625,-2.335938 -1.5625,-3.890625 v -42.0625 L 58.78125,-46.71875 40.5625,-18.9375 c -0.542969,0.65625 -1.214844,1.226562 -2.015625,1.703125 -0.804687,0.46875 -1.621094,0.679687 -2.453125,0.625 -0.78125,0.05469 -1.574219,-0.15625 -2.375,-0.625 -0.804688,-0.476563 -1.46875,-1.046875 -2,-1.703125 l -17.0625,-26.984375 2.3125,-4.734375 v 45.203125 c 0,1.554687 -0.480469,2.851563 -1.4375,3.890625 C 14.582031,-0.519531 13.335938,0 11.796875,0 10.304688,0 9.082031,-0.519531 8.125,-1.5625 7.175781,-2.601562 6.703125,-3.898438 6.703125,-5.453125 v -51.71875 c 0,-1.488281 0.546875,-2.769531 1.640625,-3.84375 1.101562,-1.070313 2.429688,-1.609375 3.984375,-1.609375 z m 0,0"
           id="path36" />
      </g>
    </g>
  </g>
  <g
     fill="#3db4f2"
     fill-opacity="1"
     id="g42"
     transform="translate(-192,-759.39064)">
    <g
       transform="translate(915.07913,1128.0481)"
       id="g41">
      <g
         id="g40">
        <path
           d="m 17.859375,-5.453125 c 0,1.554687 -0.570313,2.851563 -1.703125,3.890625 C 15.03125,-0.519531 13.722656,0 12.234375,0 10.566406,0 9.226562,-0.519531 8.21875,-1.5625 7.207031,-2.601562 6.703125,-3.898438 6.703125,-5.453125 v -51.625 c 0,-1.550781 0.535156,-2.847656 1.609375,-3.890625 1.070312,-1.039062 2.441406,-1.5625 4.109375,-1.5625 1.425781,0 2.6875,0.523438 3.78125,1.5625 1.101563,1.042969 1.65625,2.339844 1.65625,3.890625 z m 0,0"
           id="path39" />
      </g>
    </g>
  </g>
  <g
     fill="#3db4f2"
     fill-opacity="1"
     id="g45"
     transform="translate(-192,-759.39064)">
    <g
       transform="translate(946.33946,1128.0481)"
       id="g44">
      <g
         id="g43">
        <path
           d="m 64.234375,-31.265625 c 0,4.46875 -0.746094,8.640625 -2.234375,12.515625 -1.492188,3.867188 -3.59375,7.273438 -6.3125,10.21875 -2.710938,2.949219 -5.921875,5.257812 -9.640625,6.921875 -3.71875,1.6640625 -7.78125,2.5 -12.1875,2.5 -4.40625,0 -8.460937,-0.8359375 -12.15625,-2.5 -3.6875,-1.664063 -6.886719,-3.972656 -9.59375,-6.921875 C 9.398438,-11.476562 7.300781,-14.882812 5.8125,-18.75 4.320312,-22.625 3.578125,-26.796875 3.578125,-31.265625 c 0,-4.46875 0.742187,-8.632813 2.234375,-12.5 1.488281,-3.875 3.585938,-7.285156 6.296875,-10.234375 2.707031,-2.945312 5.90625,-5.253906 9.59375,-6.921875 3.695313,-1.664063 7.75,-2.5 12.15625,-2.5 4.40625,0 8.46875,0.835937 12.1875,2.5 3.71875,1.667969 6.929687,3.976563 9.640625,6.921875 2.71875,2.949219 4.820312,6.359375 6.3125,10.234375 1.488281,3.867187 2.234375,8.03125 2.234375,12.5 z m -11.625,0 c 0,-3.988281 -0.804687,-7.601563 -2.40625,-10.84375 -1.605469,-3.25 -3.808594,-5.828125 -6.609375,-7.734375 -2.804688,-1.90625 -6.046875,-2.859375 -9.734375,-2.859375 -3.699219,0 -6.949219,0.953125 -9.75,2.859375 -2.792969,1.90625 -4.980469,4.46875 -6.5625,7.6875 -1.574219,3.210938 -2.359375,6.839844 -2.359375,10.890625 0,3.992187 0.785156,7.609375 2.359375,10.859375 1.582031,3.242188 3.769531,5.8125 6.5625,7.71875 2.800781,1.90625 6.050781,2.859375 9.75,2.859375 3.6875,0 6.929687,-0.953125 9.734375,-2.859375 2.800781,-1.90625 5.003906,-4.476562 6.609375,-7.71875 1.601563,-3.25 2.40625,-6.867188 2.40625,-10.859375 z m 0,0"
           id="path42" />
      </g>
    </g>
  </g>
</svg>
