<?xml version="1.0" encoding="UTF-8" standalone="no"?>
<svg
   width="487.51562"
   zoomAndPan="magnify"
   viewBox="0 0 365.63672 401.21483"
   height="534.95312"
   preserveAspectRatio="xMidYMid"
   version="1.0"
   id="svg45"
   xmlns="http://www.w3.org/2000/svg"
   xmlns:svg="http://www.w3.org/2000/svg">
  <defs
     id="defs1">
    <clipPath
       id="72970ef24f">
      <path
         d="M 192,759.27734 H 557.90234 V 1045 H 192 Z m 0,0"
         clip-rule="nonzero"
         id="path1" />
    </clipPath>
  </defs>
  <g
     clip-path="url(#72970ef24f)"
     id="g2"
     transform="translate(-192,-759.39064)">
    <path
       fill="#ffffff"
       d="M 226.24609,768.80469 C 215.5,774.97266 207,783.55469 201.08203,793.72266 195.16797,803.96875 192,815.63672 192,828.05078 v 118.65625 c 0,12.33203 3.16797,24 9.08203,34.25 C 207,991.12109 215.5,999.70312 226.24609,1005.9531 l 62.41407,36.0821 c 9.33203,5.414 21.16406,2.25 26.57812,-7.086 5.41797,-9.332 2.25,-21.164 -7.08203,-26.5781 l -62.41016,-36.08204 h -0.082 c -4.75,-2.75 -8.5,-6.41406 -10.91797,-10.66406 -2.41797,-4.25 -3.75,-9.33594 -3.75,-14.91797 V 828.05078 c 0,-5.58203 1.33203,-10.66406 3.75,-14.83203 v -0.082 c 2.41797,-4.25 6.16797,-7.91797 11,-10.66797 4.75,-2.75 9.75,-4.08203 14.75,-4.08203 4.9961,0 10.08203,1.33203 14.7461,4.08203 l 114.24218,65.99609 h 0.082 L 503.89062,934.375 c 4.75,2.75 8.41797,6.41797 10.91797,10.75 2.41407,4.25 3.7461,9.25 3.7461,14.91406 0,5.25 -1.16407,10.08203 -3.2461,14.08203 -0.16797,0.25 -0.33593,0.5 -0.41797,0.75 -2.5,4.33594 -6.25,8.08594 -10.91796,10.75 -9.33204,5.33203 -12.4961,17.25001 -7.16407,26.50001 5.33203,9.332 17.25,12.4961 26.4961,7.1641 10.83203,-6.25 19.41797,-14.8321 25.25,-24.91411 0.25,-0.41797 0.5,-0.83203 0.66406,-1.33203 5.5,-9.91797 8.41797,-21.16797 8.41797,-33.08203 0,-12.33203 -3.16797,-24 -9.08203,-34.24609 v -0.0859 c -5.83203,-10.08203 -14.41797,-18.66406 -25.25,-24.91406 L 409.14844,834.80078 294.74219,768.80469 c -10.83203,-6.25 -22.5,-9.41407 -34.2461,-9.41407 -11.66797,0 -23.33203,3.16407 -34.25,9.41407 z m 0,0"
       fill-opacity="1"
       fill-rule="evenodd"
       id="path2" />
  </g>
  <path
     fill="#3db4f2"
     d="m 3.9500001e-6,303.64066 v 28.914 c 0,12.332 3.1679700499999,24 9.0820300499999,34.2461 5.91797,10.25 14.41797,18.832 25.16406,25 0.41797,0.25 0.83594,0.5 1.25,0.668 10.5,5.832 21.75,8.7461 33,8.7461 11.66407,0 23.32813,-3.1641 34.164066,-9.4141 l 128.15234,-73.9101 c 10.83594,-6.25 19.41797,-14.8321 25.25,-24.9141 v -0.086 c 5.91406,-10.2461 9.08203,-21.9141 9.08203,-34.2461 0,-12.3321 -3.16797,-23.99614 -9.08203,-34.24614 -5.91797,-10.16797 -14.41406,-18.75 -25.25,-25 L 117.90625,134.23827 c -3.08203,-1.75 -6.33203,-2.58204 -9.66406,-2.58204 -6.75,0 -13.249996,3.5 -16.832026,9.75 -5.33204,9.33204 -2.16797,21.16407 7.16406,26.4961 l 112.910146,65.16015 c 4.7461,2.75 8.4961,6.41797 10.91407,10.66798 2.41797,4.25 3.75,9.332 3.75,14.9141 0,5.582 -1.33203,10.6679 -3.75,14.832 -2.5,4.332 -6.25,8.082 -10.91407,10.75 l -128.156246,73.9101 c -4.75,2.75 -9.75,4.0821 -14.83203,4.0821 -4.75,0 -9.5,-1.1641 -14,-3.5821 -0.25,-0.1679 -0.5,-0.332 -0.75,-0.5 -4.83203,-2.832 -8.58203,-6.5 -11,-10.664 -2.41797,-4.25 -3.75,-9.336 -3.75,-14.918 v -28.914 c 0,-10.75 -8.75,-19.4961 -19.49609,-19.4961 -10.75,0 -19.5000000499999,8.664 -19.5000000499999,19.4961 z m 0,0"
     fill-opacity="1"
     fill-rule="evenodd"
     id="path3" />
</svg>
